<svg xmlns="http://www.w3.org/2000/svg" xml:space="preserve" viewBox="0 0 700 700"><path fill="#76e99e" d="M550 330s-79 54.3-81 55v195l-65-108 2.2 172.8h-35V451.1l58.8-.1v-41H270v41l60.8-.1v193.9H296V472l-65 108 .1-195-81.1-55 200-185M222 325.5l71 52.5h114l71-52.5L350 197ZM4.5 348.6l62.7-60.9L207 190.9l14.3-25.9 99.7-55V62l19.8-3v86zM359.2 145V59l19.8 3v48l99.7 55 14.3 25.9 139.8 96.8 62.7 60.9S359.1 145.6 359.2 145z"/><path fill="#57b275" d="m156 367.9 44 13.1 15.7 184-59.7-61ZM500 381l44-13.1V504l-57.9 61zM145 495.2l-59-62.5v-85.2l59 17.9zm410 0V365.4l59-17.9v85.2z"/><path fill="#76e99e" d="m290 62 25-1v45.6l-98.8 54.2L201 188 77.5 275Zm332.5 213L499 188l-15.2-27.2-98.8-54.5V61l25 1c2.3.3 212.5 213 212.5 213z"/><path fill="#57b275" d="M33.7 331 77 345v80l-46-45Zm632.6 0c-.7-.5 2.7 49 2.7 49l-46 45v-80z"/><path fill="#76e99e" d="M395.5 360.9h-91L266 311l52-59.4h64l54 59.4z"/></svg>