<svg xmlns="http://www.w3.org/2000/svg" xml:space="preserve" viewBox="0 0 700 700"><style>@media(prefers-color-scheme:dark){.py{fill:#61eeb1}.bg{fill:#1c1b22}.sc{fill:#8dfccc;stroke:#1c1b22}}@media(prefers-color-scheme:light){.py{fill:#121212}.bg{fill:#fff}.sc{fill:#797979;stroke:#fff}}</style><circle cx="350" cy="350" r="350" class="bg"/><path d="m50 327 155 53 15 195L46 373Zm445 53 155-53 7 46-177 202z" class="sc" stroke-width="16"/><path class="py" d="M540 304.44811 470 374v201l-60-65v140h-40V465h45v-45H285v45h45v185h-40V510l-60 65V374l-70-69 190-145m-95 145 45 55h100l45-55-45-55H300Zm20-228 75-30 75 30 250 256-325-173L25 333Z"/></svg>