<svg xmlns="http://www.w3.org/2000/svg" viewBox="0 0 700 700" xml:space="preserve">    
    <path fill="#76e99e" d="M510.286 292.715c13.579 12.772 26.899 25.304 40.656 38.248-6.342 3.838-12.259 7.442-18.198 11.01-19.25 11.563-38.463 23.186-57.807 34.59-2.953 1.74-4.024 3.559-4.018 7 .112 63.492.082 126.985.082 190.479v5.26l-.855.23-63.94-108.663v173.87h-34.949V451.115h59.486v-39.864H271.25v39.664h59.511V644.76h-34.728V472.094l-.824-.226-63.323 107.614-.887-.044v-5.113c0-63.493-.034-126.987.09-190.48.007-3.628-1.066-5.555-4.202-7.41-23.909-14.14-47.686-28.502-71.5-42.8-1.258-.756-2.48-1.572-5.186-3.293 1.884-1.207 3.429-1.892 4.592-2.985 63.3-59.42 126.564-118.878 189.839-178.324 4.717-4.432 8.02-4.43 12.741.004 50.89 47.808 101.77 95.624 152.913 143.678M269.752 277.25l-48.21 48.228c1.399 1.002 2.754 1.954 4.09 2.933 21.343 15.644 42.637 31.355 64.093 46.842 2.211 1.596 5.378 2.618 8.108 2.631 35.15.174 70.302.056 105.452.198 3.898.016 6.918-1.038 10.008-3.327 22.329-16.538 44.767-32.927 66.014-48.515L350.01 196.943l-80.258 80.308z"/>
    <path fill="#76e99e" d="m29.84 333.792-25.055 14.77-.478-.84c13.964-13.975 27.761-28.12 41.964-41.847 6.541-6.321 13.492-12.365 20.914-17.605 44.06-31.111 88.34-61.91 132.441-92.963 3.237-2.279 6.057-5.434 8.368-8.682 4.627-6.502 8.51-13.538 13.215-19.976 2.338-3.199 5.4-6.34 8.844-8.182 29.172-15.606 58.486-30.947 87.831-46.226 2.41-1.255 3.212-2.517 3.185-5.206-.15-15.146-.072-30.294-.072-45.739h19.807v85.81C238.951 208.234 136.831 269.522 34.04 330.966c-1.847 1.045-3.023 1.935-4.2 2.826zm638.07-2.68c-101.28-60.744-202.555-121.496-303.868-182.186-2.375-1.422-3.165-2.868-3.147-5.742.171-27.16.102-54.32.102-81.834h19.722c.08.97.269 2.227.27 3.484.022 14.166.083 28.332-.05 42.497-.024 2.503.77 3.675 2.99 4.833 29.485 15.367 58.942 30.788 88.279 46.435 3.177 1.695 6.144 4.477 8.198 7.452 5.57 8.063 10.58 16.512 15.86 24.777.516.806 1.29 1.512 2.083 2.066 47.343 33.082 94.717 66.12 142.027 99.25 3.783 2.65 7.352 5.698 10.641 8.946 14.349 14.169 28.56 28.477 42.811 42.744 1.13 1.132 2.19 2.334 2.622 4.402-7.884-4.73-15.768-9.46-24.138-14.631-1.791-1.126-3.096-1.81-4.401-2.493z"/>
    <path fill="#57b275" d="M156 455v-87.144c10.282 2.988 20.087 5.834 29.89 8.687 1.916.557 3.827 1.133 5.738 1.706 9.646 2.892 9.514 2.903 10.308 12.863 2.92 36.626 5.935 73.244 8.912 109.865 1.67 20.548 3.34 41.095 4.997 61.644.048.592-.057 1.196-.13 2.52-1.577-1.395-2.699-2.288-3.707-3.295-17.674-17.653-35.396-35.258-52.9-53.077-1.727-1.757-2.929-4.824-2.972-7.308-.269-15.316-.135-30.64-.135-46.461zm331.978 86.998c2.255-27.475 4.515-54.482 6.72-81.494 1.461-17.9 2.833-35.808 4.268-53.711.61-7.624 1.176-15.255 2.021-22.854.144-1.293 1.365-3.2 2.481-3.542 13.955-4.278 27.981-8.32 42.532-12.582v6.008c0 42.305-.042 84.61.074 126.916.01 3.615-.975 6.167-3.574 8.733-17.426 17.198-34.682 34.568-52.002 51.873-1.147 1.146-2.365 2.218-4.44 4.155.694-8.4 1.298-15.719 1.92-23.502zM145.998 385v110.187c-1.556-1.257-2.581-1.943-3.437-2.797-17.92-17.89-35.86-35.763-53.66-53.773-1.462-1.48-2.764-3.912-2.777-5.91-.18-27.321-.121-54.643-.108-81.964 0-.817.145-1.634.297-3.24 4.662 1.271 9.084 2.396 13.459 3.684 14.197 4.18 28.35 8.514 42.587 12.553 2.779.789 3.796 1.92 3.694 4.77-.192 5.324-.055 10.66-.055 16.49zm444.928 75.926-34.925 34.95v-5.713c0-40.126.061-80.252-.095-120.378-.016-3.892 1.176-5.407 4.884-6.441 16.647-4.644 33.196-9.637 49.786-14.487 1.556-.455 3.15-.783 5.422-1.341v5.407c0 26.14.093 52.281-.143 78.42-.023 2.605-1.439 5.754-3.24 7.688-6.918 7.428-14.257 14.463-21.689 21.895z"/>
    <path fill="#76e99e" d="M204.5 147.5c27.698-27.7 55.191-55.105 82.53-82.663 2.819-2.841 5.553-4.215 9.558-3.918 4.61.342 9.265.08 14.155.08v45.578c-29.776 16.621-59.612 33.362-89.565 49.892-3.895 2.15-7.213 4.505-9.112 8.558-7.72 16.482-23.138 25.086-36.637 35.57-30.9 23.996-61.979 47.762-92.995 71.608-1.099.845-2.305 1.548-4.118 1.477L204.5 147.499zM537.001 187l86.656 86.655-.787 1.018c-1.483-1.113-2.979-2.211-4.448-3.343-38.635-29.767-77.433-59.327-115.723-89.532-5.817-4.59-9.162-12.259-13.877-18.326-1.739-2.237-3.846-4.475-6.274-5.844a12163.205 12163.205 0 0 0-88.394-49.348c-2.54-1.403-3.24-2.896-3.215-5.613.13-13.654.06-27.31.06-41.662 6.319 0 12.58-.196 18.81.142 1.49.08 3.054 1.766 4.293 3.003 40.905 40.845 81.774 81.725 122.899 122.85z"/>
    <path fill="#57b275" d="M30.22 334.029c.797-1.128 1.973-2.018 3.51-2.913 8.34 2.617 16.299 5.303 24.305 7.839 5.844 1.85 11.751 3.503 17.752 5.28v80.692c-1.258-.974-2.294-1.612-3.134-2.45-12.968-12.928-25.987-25.81-38.767-38.924-1.617-1.66-2.699-4.547-2.762-6.9-.38-14.124-.391-28.257-.905-42.624zm637.53-2.602c1.466.369 2.771 1.052 4.242 2.05-.221 1.986-.93 3.657-.942 5.333-.094 12.661.027 25.325-.133 37.986-.025 1.97-.563 4.495-1.844 5.803-13.524 13.806-27.245 27.418-40.923 41.072-.414.414-.958.697-2.149 1.545v-5.58c0-23.326.126-46.653-.113-69.976-.044-4.318 1.315-5.929 5.398-7.048 12.179-3.338 24.213-7.208 36.464-11.185z"/>
    <path fill="#76e99e" d="M356 361c-17.489 0-34.478.075-51.465-.113-1.788-.02-4.23-1.108-5.235-2.512-11.126-15.558-22.027-31.277-33.262-47.343 5.683-6.228 11.37-12.478 17.076-18.71 11.695-12.776 23.32-25.618 35.196-38.222 1.567-1.663 4.426-2.934 6.706-2.966 17.318-.243 34.642-.193 51.963-.05 1.932.017 4.478.609 5.688 1.91 17.79 19.144 35.4 38.453 53.304 57.995-9.195 13.166-18.888 25.871-27.222 39.412-5.138 8.348-10.936 11.768-20.792 10.822-10.397-.998-20.964-.224-31.957-.224z"/>
    <!-- <style>
        path { fill: #76e99e; }
        @media (prefers-color-scheme: dark) {
            path { fill: #76e99e; }
        }
    </style> -->
</svg>
